<?xml version="1.0" encoding="UTF-8"?>
<svg id="Layer_2" data-name="Layer 2" xmlns="http://www.w3.org/2000/svg" viewBox="0 0 303.53 377.11">
  <defs>
    <style>
      .cls-1 {
        fill: #029378;
      }

      .cls-2 {
        fill: #a2e2cc;
      }

      .cls-3 {
        fill: #9fe2cb;
      }
    </style>
  </defs>
  <g id="Layer_1-2" data-name="Layer 1">
    <g>
      <path class="cls-1" d="M145.97,377.06c-33.42.76-66.79-6.82-93.65-27.13C18.08,324.17-3.03,281.53.35,238.41c.97-18.61,4.38-36.88,12.56-53.66,7.36-15.94,16.89-29.86,27.09-43.86,12.59-17.36,24.88-33.15,37.15-50.38,16.46-22.5,32.2-46.27,45.42-70.23,2.47-4.42,4.85-9.32,7.24-13.62,4-7.68,8.68-9.47,13.7-1.41,3.4,5.51,6.25,11.82,9.46,17.49,7.37,13.37,15.9,26.62,24.43,39.41,17.69,26.25,37.13,50.87,55.98,76.26,12.96,17.97,26.15,37.56,34.24,58.56,3.7,9.88,5.91,20.25,7.14,30.88,2.48,22.66.8,46.28-8.27,67.58-20.06,49.2-67.59,79.93-120.31,81.61h-.2ZM88.51,342.62c-6.41-14-6.59-31.29-3.53-46.35,6.93-28.02,29.84-48.32,50.67-66.55,7.71-6.75,16.62-13.83,22.66-20.01,1.41-1.45,10.07-10.71,10.07-10.71-.91,2.92-2.55,7.64-5.29,13.12-5.56,11.15-12.1,18.33-14.62,21.13,0,0-40.24,43.79-44.94,72.79-1.82,11.22,3.16,13.5,13.42,12.39,7.78-.85,14.9-2.43,22.47-4.26,10.09-2.47,19.2-5.76,28.44-10.59,9.06-4.55,17.69-9.17,25.26-16.16,29.23-25.22,38.9-65.28,32.13-102.24-4.51-28.19-19.12-52.81-32.51-77.58-2.79-4.76-6.25-9.89-8.51-14.59-.77-1.6-1.71-3.3-2.59-4.57-.58-.78-1.04-1.13-1.45-1-.92-.03-1.99,5.08-2.47,7.29-3.54,15.92-13.47,29.56-25.17,40.98-18.99,18.35-42.65,30.31-64.02,45.98-32.2,21.59-49.35,54.77-46.16,93.74,1.01,10.07,4.77,20.28,8.98,29.88,6.84,16.62,18.02,31,31.57,42.8,6.36,5.39,13.28,10.5,20.83,14.15,1.16.73,11.77,4.3,8.52,1.3-4.82-4.45-9.04-7.46-9.04-7.46-2.55-2.12-6.84-5.63-14.73-13.51Z"/>
      <path class="cls-3" d="M254.63,90.73l-4.86,13.36-2.56-8.18c-2.21-7.06-6.54-13.7-12.61-18.12-5.01-3.65-11.29-6.01-16.88-8.2-.39-.15-1.71-.9-1.42-1.04s1.28-.67,1.77-.81c17.29-5.03,26.4-14.04,30.79-31.81.11-.44.83-1.61,1.02-1.95,2.19-3.85,1.64,26.33,31.27,34.05,6.77,1.76-19.35,2.97-26.52,22.7Z"/>
      <path class="cls-2" d="M302.91,119.47c-11.36,4.03-13.97,4.73-18.87,17.96-2.32,6.26-.78-13.05-19.43-17.44-1.1.16-.43-1.56.43-1.79,11.63-3.07,15.64-11.74,18.65-20.96,1.91,5.15,3.25,9.79,6.42,14.07,4.32,5.83,16.24,6.94,12.8,8.16Z"/>
      <path class="cls-3" d="M188.5,291c-2.52,1.72-5.53,2.77-6.87,5.67-2.56,1.44-5.25,2.93-8.17,4.41l-12.72,6.41c-10.17,5.13-25.82,8.71-37.44,10.76-4.03.71-23.18,4.76-22.72-.66.6-7.19.87-15.85,3.76-22.41s5.88-12.65,9.24-19.15c1.72-3.32,4.78-6.59,7.15-9.66,7.79-10.07,15.75-19.28,24.14-28.85,3.1-3.54,6.12-7.25,8.84-11.1l6.29-8.9c2.6-3.68,4.18-7.67,5.7-11.55.83-2.11,2.2-4.39,2.68-6.95l-14.05,14.94-1,1-2.15,1.94c-4.63,3.41-13.28,10.63-17.62,14.78l-11.01,10.52c-16.11,15.4-25.96,27.13-35.13,47.76-3.55,7.99-3.92,17.11-3.9,25.85.04,16.21,5.02,16.89,5.11,27.19-9.29-4.51-21.61-25.1-24.88-34.51l-3.23-9.31c-1.37-3.95-3.18-8.85-3.55-13.08-1-11.64-1.43-23.08-.1-34.85,1.64-14.59,12.86-32.1,23.27-42.45,8.55-8.5,18.13-15.3,28.18-21.87l23.03-15.06c15.52-10.15,33.2-24.34,41.99-40.81,2.06-3.85,3.46-7.91,5.28-11.93,3.79-8.36.41-10.36,2.6-18.91,1.54,1.41,3.31,3.35,4.5,5.32l7.93,13.1,5.78,11.31c2.89,5.66,6.18,10.58,8.99,16.26,8.08,16.3,14,33.02,15.97,51.14,2.62,24.2-.19,41.89-10.68,63.94-1.85,3.89-3.8,7.28-6.55,10.38-5.25,7.46-11.27,14.3-18.68,19.37Z"/>
      <path class="cls-2" d="M190.4,288.16c-1.55,2.8-4.14,4.13-6.87,5.67,1.34-2.9,4.35-3.95,6.87-5.67Z"/>
    </g>
  </g>
</svg>